<?xml version="1.0" encoding="UTF-8" standalone="no"?>
<!-- Created with Inkscape (http://www.inkscape.org/) -->

<svg
   version="1.1"
   id="svg1"
   width="25.679691"
   height="11.09375"
   viewBox="0 0 25.679691 11.09375"
   xmlns="http://www.w3.org/2000/svg"
   xmlns:svg="http://www.w3.org/2000/svg">
  <defs
     id="defs1" />
  <g
     id="g1"
     transform="translate(-0.53125001,0.29296857)">
    <g
       id="g2"
       aria-label="∂GP"
       transform="matrix(1.3333333,0,0,1.3333333,0,9.224)">
      <path
         id="path2"
         d="m 4.6171875,-3.3760078 c -0.1054688,-0.6210938 -0.515625,-1.171875 -1.2890625,-1.171875 -0.609375,0 -1.2539062,0.1523437 -2.0273438,0.9257812 -0.8320312,0.8320313 -0.9023437,1.7578125 -0.9023437,2.0625 0,0.62109379 0.43359375,1.78125004 1.828125,1.78125004 2.3789062,0 3.4101562,-3.35156254 3.4101562,-4.76953124 0,-1.59375 -0.9257812,-2.5898438 -2.1445312,-2.5898438 -1.453125,0 -1.9101563,1.3007813 -1.9101563,1.5820313 0,0.140625 0.082031,0.3398437 0.375,0.3398437 0.3398438,0 0.5390626,-0.2929687 0.5390626,-0.5273437 0,-0.3398438 -0.3046875,-0.3398438 -0.46875,-0.3398438 0.4453125,-0.7382812 1.1484375,-0.796875 1.4414062,-0.796875 0.7265625,0 1.4179687,0.515625 1.4179687,1.7929688 0,0.3984375 -0.058594,0.9023437 -0.2695312,1.7109375 z m -2.3554687,3.31640624 c -1.1015626,0 -1.1015626,-1.03125004 -1.1015626,-1.12500004 0,-0.2695312 0.2578125,-1.6640625 0.6679688,-2.2617187 0.3984375,-0.5742188 0.8789063,-0.890625 1.5,-0.890625 1.0898437,0 1.1015625,1.1132812 1.1015625,1.3125 0,0.7265625 -0.6328125,2.96484374 -2.1679687,2.96484374 z m 0,0"
         style="fill:#000000;fill-opacity:1;fill-rule:nonzero;stroke:none" />
      <path
         id="path3"
         d="m 10.189453,-1.5830391 c -0.2695311,0.90234379 -0.5273436,1.35937504 -0.6328124,1.52343754 -0.3867187,0.6796875 -0.5976562,0.69140625 -0.9375,0.69140625 -0.1640625,0 -0.8789062,-0.0234375 -1.4648437,-0.421875 -0.4453125,0.0234375 -0.796875,0.36328125 -0.796875,0.48046875 0,0.0820313 0.6796875,0.49218746 1.6054687,0.49218746 0.7148438,0 1.8984375,-0.37499996 2.6367184,-2.00390621 0.257813,-0.55078129 0.433594,-1.12499999 0.457032,-1.24218749 0.199218,-0.6914063 0.410156,-1.4882813 0.410156,-1.5234375 0,-0.058594 -0.01172,-0.09375 -0.105469,-0.09375 -0.09375,0 -0.257812,0.058594 -0.46875,0.1875 -0.234375,0.1523437 -0.234375,0.1992187 -0.304687,0.4570312 -0.105469,0.3398438 -0.6914066,1.8046875 -1.9218754,1.8046875 -0.9726562,0 -1.5351562,-0.7851562 -1.5351562,-1.9101562 0,-0.7617188 0.3046875,-1.7929688 0.8789062,-2.484375 0.2695313,-0.3164063 0.7617188,-0.8554688 1.8867188,-0.8554688 0.1874996,0 0.4804686,0.035156 0.7265626,0.1171875 0.105469,0.023437 0.363281,0.1054688 0.363281,0.421875 0,0.3398438 -0.527344,0.984375 -0.5625,1.0429688 -0.03516,0.035156 -0.07031,0.082031 -0.07031,0.1171875 0,0.070312 0.04687,0.070312 0.105468,0.070312 0.292969,0 0.621094,-0.2695313 0.890625,-0.6328125 0.08203,-0.1171875 0.480469,-0.6679688 0.480469,-1.0078125 0,-0.4101563 -0.304687,-0.515625 -0.433594,-0.5507813 -0.363281,-0.1171875 -0.703125,-0.1171875 -0.84375,-0.1171875 -2.2499996,0 -4.2773434,1.96875 -4.2773434,4.3125 0,1.0078125 0.4570313,2.02734379 1.734375,2.02734379 0.75,0 1.5234375,-0.37499999 2.1796874,-0.90234379 z m 5.636719,-5.2265625 c -1.40625,0 -2.472656,0.6796875 -2.882813,1.1484375 -0.351562,0.3984375 -0.375,0.6914063 -0.375,0.7148438 0,0.058594 0.03516,0.070312 0.09375,0.070312 0.164063,0 0.398438,-0.140625 0.46875,-0.1875 0.210938,-0.140625 0.246094,-0.1992188 0.304688,-0.3867188 0.140625,-0.3984375 0.421875,-0.75 1.675781,-0.8085937 -0.1875,2.2382812 -0.785156,4.4296875 -1.617187,6.50390624 -0.05859,0.15234375 -0.05859,0.17578125 -0.05859,0.1875 0,0.0234375 0.02344,0.0703125 0.09375,0.0703125 0.164062,0 0.644531,-0.22265625 0.75,-0.48046875 0.515625,-1.21874999 1.335937,-3.51562499 1.628906,-6.28124999 h 0.527344 c 1.207031,0 2.378906,0.46875 2.378906,1.4648437 0,0.75 -0.714844,2.1445313 -2.648437,2.203125 -0.210938,0.011719 -0.316407,0.011719 -0.597657,0.1875 -0.1875,0.1171875 -0.257812,0.234375 -0.257812,0.2929688 0,0.070312 0.05859,0.070312 0.1875,0.070312 1.804687,0 4.160156,-1.5351563 4.160156,-3.1757813 0,-1.1367187 -1.347656,-1.59375 -2.496094,-1.59375 z m 0,0"
         style="fill:#000000;fill-opacity:1;fill-rule:nonzero;stroke:none" />
    </g>
  </g>
</svg>
