<?xml version="1.0" encoding="UTF-8" standalone="no"?>
<!-- Created with Inkscape (http://www.inkscape.org/) -->

<svg
   version="1.1"
   id="svg1"
   width="29.468"
   height="13.173333"
   viewBox="0 0 29.468 13.173333"
   sodipodi:docname="dgp_logo.pdf"
   xmlns:inkscape="http://www.inkscape.org/namespaces/inkscape"
   xmlns:sodipodi="http://sodipodi.sourceforge.net/DTD/sodipodi-0.dtd"
   xmlns="http://www.w3.org/2000/svg"
   xmlns:svg="http://www.w3.org/2000/svg">
  <defs
     id="defs1" />
  <sodipodi:namedview
     id="namedview1"
     pagecolor="#ffffff"
     bordercolor="#000000"
     borderopacity="0.25"
     inkscape:showpageshadow="2"
     inkscape:pageopacity="0.0"
     inkscape:pagecheckerboard="0"
     inkscape:deskcolor="#d1d1d1">
    <inkscape:page
       x="0"
       y="0"
       inkscape:label="1"
       id="page1"
       width="29.468"
       height="13.173333"
       margin="0"
       bleed="0" />
  </sodipodi:namedview>
  <g
     id="g1"
     inkscape:groupmode="layer"
     inkscape:label="1">
    <path
       id="path1"
       d="m 4.6172813,-3.3739844 c -0.1054688,-0.6210937 -0.515625,-1.171875 -1.2890625,-1.171875 -0.609375,0 -1.2539063,0.1523438 -2.0273438,0.9257813 -0.83203125,0.8320312 -0.90234375,1.7578125 -0.90234375,2.0625 0,0.62109372 0.43359375,1.78124997 1.82812505,1.78124997 2.3789062,0 3.4101562,-3.35156247 3.4101562,-4.76953127 0,-1.59375 -0.9257812,-2.5898437 -2.1445312,-2.5898437 -1.453125,0 -1.9101563,1.3007812 -1.9101563,1.5820312 0,0.140625 0.082031,0.3398438 0.375,0.3398438 0.3398438,0 0.5390625,-0.2929688 0.5390625,-0.5273438 0,-0.3398437 -0.3046875,-0.3398437 -0.46875,-0.3398437 0.4453125,-0.7382813 1.1484375,-0.796875 1.4414063,-0.796875 0.7265625,0 1.4179687,0.515625 1.4179687,1.7929687 0,0.3984375 -0.058594,0.9023438 -0.2695312,1.7109375 z m -2.3554688,3.31640627 c -1.1015625,0 -1.1015625,-1.03124997 -1.1015625,-1.12499997 0,-0.2695313 0.2578125,-1.6640625 0.6679687,-2.2617188 0.3984376,-0.5742187 0.8789063,-0.890625 1.5000001,-0.890625 1.0898437,0 1.1015625,1.1132813 1.1015625,1.3125 0,0.7265625 -0.6328125,2.96484377 -2.1679688,2.96484377 z m 0,0"
       style="fill:#eb455f;fill-opacity:1;fill-rule:nonzero;stroke:none"
       aria-label="∂"
       transform="matrix(1.3333333,0,0,1.3333333,1.328,10.553333)" />
    <path
       id="path2"
       d="m 4.3465469,-1.5810156 c -0.2695313,0.90234372 -0.5273438,1.35937497 -0.6328125,1.52343747 -0.3867188,0.6796875 -0.5976563,0.69140625 -0.9375,0.69140625 -0.1640625,0 -0.8789063,-0.0234375 -1.4648438,-0.421875 -0.44531247,0.0234375 -0.79687497,0.36328125 -0.79687497,0.48046875 0,0.0820313 0.67968747,0.49218753 1.60546877,0.49218753 0.7148437,0 1.8984375,-0.37500003 2.6367187,-2.00390628 0.2578125,-0.55078122 0.4335938,-1.12500002 0.4570313,-1.24218752 0.1992187,-0.6914062 0.4101562,-1.4882812 0.4101562,-1.5234375 0,-0.058594 -0.011719,-0.09375 -0.1054687,-0.09375 -0.09375,0 -0.2578125,0.058594 -0.46875,0.1875 -0.234375,0.1523438 -0.234375,0.1992188 -0.3046875,0.4570313 -0.1054688,0.3398437 -0.6914063,1.8046875 -1.921875,1.8046875 -0.9726563,0 -1.5351563,-0.7851563 -1.5351563,-1.9101563 0,-0.7617187 0.3046875,-1.7929687 0.8789063,-2.484375 0.2695312,-0.3164062 0.7617187,-0.8554687 1.8867187,-0.8554687 0.1875,0 0.4804688,0.035156 0.7265625,0.1171875 0.1054688,0.023437 0.3632813,0.1054687 0.3632813,0.421875 0,0.3398437 -0.5273438,0.984375 -0.5625,1.0429687 -0.035156,0.035156 -0.070312,0.082031 -0.070312,0.1171875 0,0.070312 0.046875,0.070312 0.1054687,0.070312 0.2929688,0 0.6210938,-0.2695312 0.890625,-0.6328125 0.082031,-0.1171875 0.4804688,-0.6679687 0.4804688,-1.0078125 0,-0.4101562 -0.3046875,-0.515625 -0.4335938,-0.5507812 -0.3632812,-0.1171875 -0.703125,-0.1171875 -0.84375,-0.1171875 -2.25,0 -4.27734372,1.96875 -4.27734372,4.3125 0,1.0078125 0.45703125,2.02734372 1.73437502,2.02734372 0.75,0 1.5234375,-0.37500002 2.179687,-0.90234322 z m 5.6367187,-5.2265625 c -1.40625,0 -2.4726562,0.6796875 -2.8828125,1.1484375 -0.3515625,0.3984375 -0.375,0.6914062 -0.375,0.7148437 0,0.058594 0.035156,0.070312 0.09375,0.070312 0.1640625,0 0.3984375,-0.140625 0.46875,-0.1875 0.2109375,-0.140625 0.2460938,-0.1992187 0.3046875,-0.3867187 0.140625,-0.3984375 0.421875,-0.75 1.6757813,-0.8085938 -0.1875,2.2382813 -0.7851563,4.4296875 -1.6171875,6.50390627 -0.058594,0.15234375 -0.058594,0.17578125 -0.058594,0.1875 0,0.0234375 0.023437,0.0703125 0.09375,0.0703125 0.1640625,0 0.6445313,-0.22265625 0.75,-0.48046875 0.515625,-1.21875002 1.3359375,-3.51562502 1.6289066,-6.28125002 h 0.527344 c 1.207031,0 2.378906,0.46875 2.378906,1.4648438 0,0.75 -0.714844,2.1445312 -2.648438,2.203125 -0.210937,0.011719 -0.316406,0.011719 -0.5976561,0.1875 -0.1875,0.1171875 -0.2578125,0.234375 -0.2578125,0.2929687 0,0.070312 0.058594,0.070312 0.1875,0.070312 1.8046876,0 4.1601566,-1.5351562 4.1601566,-3.1757812 0,-1.1367188 -1.347656,-1.59375 -2.496094,-1.59375 z m 0,0"
       style="fill:#3db2ff;fill-opacity:1;fill-rule:nonzero;stroke:none"
       aria-label="GP"
       transform="matrix(1.3333333,0,0,1.3333333,9.1186667,10.553333)" />
  </g>
</svg>
